<svg xmlns="http://www.w3.org/2000/svg" viewBox="0 0 24 24" fill="none" stroke="currentColor" stroke-width="1.5" stroke-linecap="round" stroke-linejoin="round" aria-hidden="true" focusable="false">
  <title>Hypnotherapie</title>
  <!-- Soft halo -->
  <circle cx="12" cy="12" r="10" opacity="0.35"/>
  <!-- Brain — two hemispheres, simplified outline -->
  <path d="M12 6 C10 6 8.5 7 8.5 8.5 C7 8.5 6 9.5 6 11 C6 12 6.5 12.5 7 13 C6.5 13.5 6.5 14.5 7 15 C7 16.5 8.5 17.5 10 17 C10.5 17.5 11 17.5 12 17.5"/>
  <path d="M12 6 C14 6 15.5 7 15.5 8.5 C17 8.5 18 9.5 18 11 C18 12 17.5 12.5 17 13 C17.5 13.5 17.5 14.5 17 15 C17 16.5 15.5 17.5 14 17 C13.5 17.5 13 17.5 12 17.5"/>
  <!-- Central fissure -->
  <path d="M12 6 V17.5"/>
</svg>
